HIERARCHY
ROOT Hips
{
  OFFSET -347.827 93.3745 1103.5
  CHANNELS 6 Xposition Yposition Zposition Zrotation Xrotation Yrotation
  JOINT Spine
  {
    OFFSET 3.6803e-05 8.00001 5.22901e-05
    CHANNELS 6 Xposition Yposition Zposition Zrotation Xrotation Yrotation
    JOINT Spine1
    {
      OFFSET 0.000315466 7.99999 0.000135723
      CHANNELS 6 Xposition Yposition Zposition Zrotation Xrotation Yrotation
      JOINT Spine2
      {
        OFFSET -9.25326e-05 8.00001 -1.41242e-05
        CHANNELS 6 Xposition Yposition Zposition Zrotation Xrotation Yrotation
        JOINT Spine3
        {
          OFFSET 0 8 0
          CHANNELS 6 Xposition Yposition Zposition Zrotation Xrotation Yrotation
          JOINT Neck
          {
            OFFSET -0.000256571 17 -7.17338e-05
            CHANNELS 6 Xposition Yposition Zposition Zrotation Xrotation Yrotation
            JOINT Head
            {
              OFFSET -2.69379e-05 10.8 -0.000107656
              CHANNELS 6 Xposition Yposition Zposition Zrotation Xrotation Yrotation
              End Site
              {
                OFFSET 0 20.25 0
              }
            }
          }
          JOINT LeftShoulder
          {
            OFFSET 4.99964 17.0001 -0.000108946
            CHANNELS 6 Xposition Yposition Zposition Zrotation Xrotation Yrotation
            JOINT LeftShoulder2
            {
              OFFSET 6.45 0 0
              CHANNELS 6 Xposition Yposition Zposition Zrotation Xrotation Yrotation
              JOINT LeftArm
              {
                OFFSET 6.45001 0.000360669 0.00123472
                CHANNELS 6 Xposition Yposition Zposition Zrotation Xrotation Yrotation
                JOINT LeftForeArm
                {
                  OFFSET 0.000446821 -32.3995 -1.9992
                  CHANNELS 6 Xposition Yposition Zposition Zrotation Xrotation Yrotation
                  JOINT LeftHand
                  {
                    OFFSET -0.000418068 -25.6489 2.00104
                    CHANNELS 6 Xposition Yposition Zposition Zrotation Xrotation Yrotation
                    JOINT LeftHandThumb1
                    {
                      OFFSET -0.499493 -1.49938 2.65088
                      CHANNELS 6 Xposition Yposition Zposition Zrotation Xrotation Yrotation
                      JOINT LeftHandThumb2
                      {
                        OFFSET 9.97217e-05 -3.79978 3.70018
                        CHANNELS 6 Xposition Yposition Zposition Zrotation Xrotation Yrotation
                        JOINT LeftHandThumb3
                        {
                          OFFSET -0.000533556 -3.00004 2.70003
                          CHANNELS 6 Xposition Yposition Zposition Zrotation Xrotation Yrotation
                          End Site
                          {
                            OFFSET 0.0004115 -2.29922 1.79921
                          }
                        }
                      }
                    }
                    JOINT LeftHandIndex
                    {
                      OFFSET -0.00181631 -1.89949 1.60087
                      CHANNELS 6 Xposition Yposition Zposition Zrotation Xrotation Yrotation
                      JOINT LeftHandIndex1
                      {
                        OFFSET -0.000341139 -8.30013 1.90028
                        CHANNELS 6 Xposition Yposition Zposition Zrotation Xrotation Yrotation
                        JOINT LeftHandIndex2
                        {
                          OFFSET 0.000294094 -4.49974 0.000833183
                          CHANNELS 6 Xposition Yposition Zposition Zrotation Xrotation Yrotation
                          JOINT LeftHandIndex3
                          {
                            OFFSET 0.00122801 -3.40032 0.00395012
                            CHANNELS 6 Xposition Yposition Zposition Zrotation Xrotation Yrotation
                            End Site
                            {
                              OFFSET -7.98178e-05 -2.60017 -0.00039539
                            }
                          }
                        }
                      }
                    }
                    JOINT LeftHandMiddle
                    {
                      OFFSET -0.249044 -2.20031 0.399436
                      CHANNELS 6 Xposition Yposition Zposition Zrotation Xrotation Yrotation
                      JOINT LeftHandMiddle1
                      {
                        OFFSET 0.000262691 -8.30105 0.999241
                        CHANNELS 6 Xposition Yposition Zposition Zrotation Xrotation Yrotation
                        JOINT LeftHandMiddle2
                        {
                          OFFSET -0.00054824 -4.65122 -0.00123035
                          CHANNELS 6 Xposition Yposition Zposition Zrotation Xrotation Yrotation
                          JOINT LeftHandMiddle3
                          {
                            OFFSET 0.00251437 -3.30254 -0.00308617
                            CHANNELS 6 Xposition Yposition Zposition Zrotation Xrotation Yrotation
                            End Site
                            {
                              OFFSET 0.000472808 -2.7024 -0.00256007
                            }
                          }
                        }
                      }
                    }
                    JOINT LeftHandRing
                    {
                      OFFSET -0.499712 -2.15071 -0.800621
                      CHANNELS 6 Xposition Yposition Zposition Zrotation Xrotation Yrotation
                      JOINT LeftHandRing1
                      {
                        OFFSET 0.000641921 -7.74952 -0.1993
                        CHANNELS 6 Xposition Yposition Zposition Zrotation Xrotation Yrotation
                        JOINT LeftHandRing2
                        {
                          OFFSET -0.00155649 -3.79921 0.00137905
                          CHANNELS 6 Xposition Yposition Zposition Zrotation Xrotation Yrotation
                          JOINT LeftHandRing3
                          {
                            OFFSET -0.00276463 -3.39963 -0.000604948
                            CHANNELS 6 Xposition Yposition Zposition Zrotation Xrotation Yrotation
                            End Site
                            {
                              OFFSET -0.000527521 -2.59883 0.00370134
                            }
                          }
                        }
                      }
                    }
                    JOINT LeftHandPinky
                    {
                      OFFSET -0.749366 -1.75303 -1.8488
                      CHANNELS 6 Xposition Yposition Zposition Zrotation Xrotation Yrotation
                      JOINT LeftHandPinky1
                      {
                        OFFSET 0.00347063 -7.14782 -0.996803
                        CHANNELS 6 Xposition Yposition Zposition Zrotation Xrotation Yrotation
                        JOINT LeftHandPinky2
                        {
                          OFFSET 4.0479e-05 -2.99921 -0.00126442
                          CHANNELS 6 Xposition Yposition Zposition Zrotation Xrotation Yrotation
                          JOINT LeftHandPinky3
                          {
                            OFFSET 0.00318557 -2.35662 -0.000423742
                            CHANNELS 6 Xposition Yposition Zposition Zrotation Xrotation Yrotation
                            End Site
                            {
                              OFFSET -0.00161104 -2.10033 0.00126621
                            }
                          }
                        }
                      }
                    }
                  }
                }
              }
            }
          }
          JOINT RightShoulder
          {
            OFFSET -5.00031 16.9999 0.0001505
            CHANNELS 6 Xposition Yposition Zposition Zrotation Xrotation Yrotation
            JOINT RightShoulder2
            {
              OFFSET -6.45 0 0
              CHANNELS 6 Xposition Yposition Zposition Zrotation Xrotation Yrotation
              JOINT RightArm
              {
                OFFSET -6.44995 -0.000224223 -0.000670326
                CHANNELS 6 Xposition Yposition Zposition Zrotation Xrotation Yrotation
                JOINT RightForeArm
                {
                  OFFSET -0.000928328 -32.3963 -1.99565
                  CHANNELS 6 Xposition Yposition Zposition Zrotation Xrotation Yrotation
                  JOINT RightHand
                  {
                    OFFSET -0.000194103 -25.6448 2.00249
                    CHANNELS 6 Xposition Yposition Zposition Zrotation Xrotation Yrotation
                    JOINT RightHandThumb1
                    {
                      OFFSET 0.500016 -1.50002 2.65006
                      CHANNELS 6 Xposition Yposition Zposition Zrotation Xrotation Yrotation
                      JOINT RightHandThumb2
                      {
                        OFFSET 0.000102104 -3.80001 3.70003
                        CHANNELS 6 Xposition Yposition Zposition Zrotation Xrotation Yrotation
                        JOINT RightHandThumb3
                        {
                          OFFSET 9.6954e-05 -2.99992 2.70007
                          CHANNELS 6 Xposition Yposition Zposition Zrotation Xrotation Yrotation
                          End Site
                          {
                            OFFSET -0.000130724 -2.30006 1.79994
                          }
                        }
                      }
                    }
                    JOINT RightHandIndex
                    {
                      OFFSET -0.00259133 -1.90242 1.60604
                      CHANNELS 6 Xposition Yposition Zposition Zrotation Xrotation Yrotation
                      JOINT RightHandIndex1
                      {
                        OFFSET -0.00326425 -8.30004 1.89851
                        CHANNELS 6 Xposition Yposition Zposition Zrotation Xrotation Yrotation
                        JOINT RightHandIndex2
                        {
                          OFFSET 4.95874e-05 -4.49989 5.21246e-05
                          CHANNELS 6 Xposition Yposition Zposition Zrotation Xrotation Yrotation
                          JOINT RightHandIndex3
                          {
                            OFFSET -0.00298322 -3.39701 0.00155503
                            CHANNELS 6 Xposition Yposition Zposition Zrotation Xrotation Yrotation
                            End Site
                            {
                              OFFSET 0.000506671 -2.60009 0.000169832
                            }
                          }
                        }
                      }
                    }
                    JOINT RightHandMiddle
                    {
                      OFFSET 0.248008 -2.20027 0.400066
                      CHANNELS 6 Xposition Yposition Zposition Zrotation Xrotation Yrotation
                      JOINT RightHandMiddle1
                      {
                        OFFSET -0.000204965 -8.29991 0.999978
                        CHANNELS 6 Xposition Yposition Zposition Zrotation Xrotation Yrotation
                        JOINT RightHandMiddle2
                        {
                          OFFSET 0.00106273 -4.65078 0.00113934
                          CHANNELS 6 Xposition Yposition Zposition Zrotation Xrotation Yrotation
                          JOINT RightHandMiddle3
                          {
                            OFFSET -3.17447e-05 -3.30115 9.29675e-05
                            CHANNELS 6 Xposition Yposition Zposition Zrotation Xrotation Yrotation
                            End Site
                            {
                              OFFSET 0.000203304 -2.69967 0.000407355
                            }
                          }
                        }
                      }
                    }
                    JOINT RightHandRing
                    {
                      OFFSET 0.500167 -2.14975 -0.799395
                      CHANNELS 6 Xposition Yposition Zposition Zrotation Xrotation Yrotation
                      JOINT RightHandRing1
                      {
                        OFFSET 9.75759e-05 -7.75001 -0.199945
                        CHANNELS 6 Xposition Yposition Zposition Zrotation Xrotation Yrotation
                        JOINT RightHandRing2
                        {
                          OFFSET 0.000665856 -3.80068 0.000249451
                          CHANNELS 6 Xposition Yposition Zposition Zrotation Xrotation Yrotation
                          JOINT RightHandRing3
                          {
                            OFFSET -9.79043e-05 -3.40003 -0.000117215
                            CHANNELS 6 Xposition Yposition Zposition Zrotation Xrotation Yrotation
                            End Site
                            {
                              OFFSET 0.000227326 -2.60023 -0.000456641
                            }
                          }
                        }
                      }
                    }
                    JOINT RightHandPinky
                    {
                      OFFSET 0.750002 -1.74987 -1.84988
                      CHANNELS 6 Xposition Yposition Zposition Zrotation Xrotation Yrotation
                      JOINT RightHandPinky1
                      {
                        OFFSET -0.00021848 -7.14951 -0.999657
                        CHANNELS 6 Xposition Yposition Zposition Zrotation Xrotation Yrotation
                        JOINT RightHandPinky2
                        {
                          OFFSET 0.000567196 -2.99874 0.00128143
                          CHANNELS 6 Xposition Yposition Zposition Zrotation Xrotation Yrotation
                          JOINT RightHandPinky3
                          {
                            OFFSET 0.000789042 -2.35111 -0.00172974
                            CHANNELS 6 Xposition Yposition Zposition Zrotation Xrotation Yrotation
                            End Site
                            {
                              OFFSET -0.000426858 -2.09989 0.000389556
                            }
                          }
                        }
                      }
                    }
                  }
                }
              }
            }
          }
        }
      }
    }
  }
  JOINT LeftUpLeg
  {
    OFFSET 8 0 8.47455e-05
    CHANNELS 6 Xposition Yposition Zposition Zrotation Xrotation Yrotation
    JOINT LeftLeg
    {
      OFFSET -6.78826e-05 -44.9998 -1.00028
      CHANNELS 6 Xposition Yposition Zposition Zrotation Xrotation Yrotation
      JOINT LeftFoot
      {
        OFFSET 4.96692e-05 -41 -2.00002
        CHANNELS 6 Xposition Yposition Zposition Zrotation Xrotation Yrotation
        JOINT LeftToeBase
        {
          OFFSET 0.000149521 -7.5 12.4998
          CHANNELS 6 Xposition Yposition Zposition Zrotation Xrotation Yrotation
          JOINT LeftFootToe
          {
            OFFSET 0 0 4
            CHANNELS 6 Xposition Yposition Zposition Zrotation Xrotation Yrotation
            End Site
            {
              OFFSET 0 0 0
            }
          }
        }
      }
    }
  }
  JOINT RightUpLeg
  {
    OFFSET -8 0 -8.47455e-05
    CHANNELS 6 Xposition Yposition Zposition Zrotation Xrotation Yrotation
    JOINT RightLeg
    {
      OFFSET -2.6849e-05 -45.0001 -0.999932
      CHANNELS 6 Xposition Yposition Zposition Zrotation Xrotation Yrotation
      JOINT RightFoot
      {
        OFFSET -0.00044515 -41.0003 -2.00081
        CHANNELS 6 Xposition Yposition Zposition Zrotation Xrotation Yrotation
        JOINT RightToeBase
        {
          OFFSET 0.000339281 -7.5 12.5001
          CHANNELS 6 Xposition Yposition Zposition Zrotation Xrotation Yrotation
          JOINT RightFootToe
          {
            OFFSET 0 0 4
            CHANNELS 6 Xposition Yposition Zposition Zrotation Xrotation Yrotation
            End Site
            {
              OFFSET 0 0 0
            }
          }
        }
      }
    }
  }
}
MOTION
Frames:	3
Frame Time:	0.0111111
-322.618 91.2859 1098.78 2.97464 5.09562 -122.224 2.27374e-13 8 1.13687e-13 10.7822 5.88406 11.3417 0 8 1.13687e-13 2.68307 4.95022 3.63402 -2.27374e-13 8 -1.13687e-13 1.38291 2.45592 1.84112 0 8 -2.84217e-14 1.38614 2.45197 1.83822 -2.27374e-13 17 8.52651e-14 -1.0545 5.85908 9.15323 0 10.8 -1.13687e-13 -3.99772 13.3327 21.9311 5 17 1.42109e-13 -6.12662 -2.99073 -0.471861 6.45 -1.13687e-13 -2.84217e-14 -0.744792 -0.69773 -0.410899 6.45 -2.84217e-14 -2.84217e-14 57.8058 -69.1514 32.5746 1.13687e-13 -32.4 -2 -2.71834 -10.6296 8.49738 0 -25.65 2 -9.33429 11.3828 -34.7195 -0.5 -1.5 2.65 35.0718 -43.137 101.775 0 -3.8 3.7 -0.26097 -1.86609 0.0176096 -2.27374e-13 -3 2.7 -0.0198341 -0.911674 0.0252254 -2.27374e-13 -1.9 1.6 2.97264e-06 -4.7472e-06 -4.16696e-06 0 -8.3 1.9 -0.061652 -1.56596 0.00848855 0 -4.5 0 -0.0209738 -0.00456471 -0.122316 0 -3.4 -2.27374e-13 -0.000221982 0.0112194 -0.119928 -0.25 -2.2 0.4 2.97264e-06 -4.7472e-06 -4.16696e-06 0 -8.3 1 -0.0671623 -0.573684 0.00415742 -3.41061e-13 -4.65 0 -0.613004 0.0856422 -0.0717975 -2.27374e-13 -3.3 -1.13687e-13 -53.0981 -0.00756398 -0.00322649 -0.5 -2.15 -0.8 2.97264e-06 -4.7472e-06 -4.16696e-06 0 -7.75 -0.2 -0.0687621 1.20003 0.0158982 0 -3.8 0 -1.10307 -0.00667516 -0.0131284 -1.13687e-13 -3.4 0 -89.9989 0.0276769 -3.71704 -0.75 -1.75 -1.85 2.97264e-06 -4.7472e-06 -4.16696e-06 1.13687e-13 -7.15 -1 -0.0527465 1.98968 0.0198835 0 -3 0 -0.047944 0.00132015 0.000295991 1.13687e-13 -2.35 -1.13687e-13 -0.0429878 0.00111251 0.000280234 -5 17 0 -3.14214 -7.44133 0.679446 -6.45 -8.52651e-14 -1.7053e-13 -1.57389 1.45716 -2.30206 -6.45 0 5.68434e-14 28.1903 -41.9284 43.7123 0 -32.4 -2 27.8396 -61.5733 35.6154 -1.13687e-13 -25.65 2 -28.8672 16.445 51.1864 0.5 -1.5 2.65 94.2492 9.38561 129.737 1.13687e-13 -3.8 3.7 0.116194 1.40636 0.00224687 1.13687e-13 -3 2.7 0.00617915 24.1018 -0.0315636 0 -1.9 1.6 1.98785e-15 3.97569e-16 -0 0 -8.3 1.9 11.0365 -14.4397 1.26308 2.27374e-13 -4.5 -2.27374e-13 -0.00731228 0.151435 -0.0422037 -1.13687e-13 -3.4 -2.27374e-13 -0.000656288 0.146266 0.255357 0.25 -2.2 0.4 1.98785e-15 3.97569e-16 -0 -1.13687e-13 -8.3 1 13.7087 -1.70872 0.0432373 -1.13687e-13 -4.65 -1.13687e-13 1.34526 13.9367 9.46795 1.13687e-13 -3.3 0 50.8699 0.0692902 0.0738192 0.5 -2.15 -0.8 1.98785e-15 3.97569e-16 -0 -1.13687e-13 -7.75 -0.2 42.1903 -6.95312 0.930054 1.13687e-13 -3.8 0 3.2761 19.762 12.4182 -5.68434e-14 -3.4 -2.27374e-13 48.6019 0.069191 0.0228327 0.75 -1.75 -1.85 1.98785e-15 3.97569e-16 -0 1.13687e-13 -7.15 -1 53.4481 -14.9018 3.31675 -5.68434e-14 -3 0 4.39441 14.9652 5.72409 0 -2.35 0 31.708 0.0289378 0.0391368 8 -2.84217e-14 -1.7053e-13 9.67243 -17.9202 -7.13936 2.27374e-13 -45 -1 6.92127 4.78954 0.989822 0 -41 -2 -10.1766 4.59505 -22.7173 -1.13687e-13 -7.5 12.5 -2.64766e-07 -4.60975e-07 1.26623e-09 0 -7.10543e-15 4 2.87199 -4.78031 20.0693 -8 0 0 -1.00834 2.43493 4.10844 0 -45 -1 16.8584 -5.75975 -2.63469 0 -41 -2 -10.2477 2.49534 -20.5763 1.13687e-13 -7.5 12.5 0.000849881 0.403213 -0.11924 0 0 4 2.5658 0.843933 41.8257 
-322.622 91.2858 1098.78 2.98371 5.09494 -122.279 0 8 5.68434e-14 10.7539 5.90092 11.3417 0 8 1.13687e-13 2.68565 4.9614 3.63289 0 8 -1.13687e-13 1.38415 2.46124 1.84102 2.27374e-13 8 2.84217e-14 1.38629 2.45767 1.83845 0 17 1.13687e-13 -1.08049 5.86851 9.16277 2.27374e-13 10.8 -1.13687e-13 -4.06308 13.3476 21.9592 5 17 1.42109e-13 -6.14506 -2.98449 -0.573197 6.45 -1.42109e-13 0 -0.741157 -0.700386 -0.417866 6.45 5.68434e-14 0 58.0694 -69.6213 32.6724 0 -32.4 -2 -2.26875 -9.49471 7.96847 0 -25.65 2 -9.54453 10.2439 -35.3684 -0.5 -1.5 2.65 34.8167 -42.92 103.016 0 -3.8 3.7 -0.260991 -1.84693 0.0179823 0 -3 2.7 -0.0198129 -0.911674 0.0243366 -2.27374e-13 -1.9 1.6 2.97264e-06 -4.7472e-06 -4.16696e-06 0 -8.3 1.9 -0.0809146 -1.92375 0.0086517 0 -4.5 1.13687e-13 -0.0212437 -0.0042 -0.120914 0 -3.4 -2.27374e-13 -0.000339256 0.0107728 -0.118456 -0.25 -2.2 0.4 2.97264e-06 -4.7472e-06 -4.16696e-06 -1.13687e-13 -8.3 1 -0.0837394 -0.777326 0.00458892 -2.27374e-13 -4.65 0 -0.613011 0.0832923 -0.0697601 -1.13687e-13 -3.3 0 -52.6741 -0.035147 -0.0412742 -0.5 -2.15 -0.8 2.97264e-06 -4.7472e-06 -4.16696e-06 -2.27374e-13 -7.75 -0.2 -0.081422 1.31348 0.0185912 0 -3.8 2.27374e-13 -1.10298 -0.00617512 -0.0131186 -1.13687e-13 -3.4 1.13687e-13 -89.9989 0.0276769 -3.7171 -0.75 -1.75 -1.85 2.97264e-06 -4.7472e-06 -4.16696e-06 0 -7.15 -1 -0.0655669 2.27414 0.0247598 1.13687e-13 -3 0 -0.220007 0.0192722 0.00251022 0 -2.35 0 -0.23727 0.0185841 0.00268267 -5 17 0 -3.1563 -7.52255 0.617233 -6.45 -1.7053e-13 -1.13687e-13 -1.58101 1.4871 -2.32877 -6.45 0 5.68434e-14 28.4175 -41.7507 44.0329 -1.13687e-13 -32.4 -2 27.9486 -61.9185 36.2453 0 -25.65 2 -29.4389 16.1372 52.6116 0.5 -1.5 2.65 95.7939 7.56383 130.453 1.13687e-13 -3.8 3.7 0.116169 1.9462 0.00225541 -5.68434e-14 -3 2.7 0.00979375 24.4603 -0.0314908 0 -1.9 1.6 7.95139e-16 3.97569e-16 -3.18055e-15 -1.13687e-13 -8.3 1.9 11.4216 -14.6422 1.3247 0 -4.5 -2.27374e-13 -0.00728957 0.15137 -0.0422037 -1.13687e-13 -3.4 -2.27374e-13 -0.000655981 0.146225 0.255929 0.25 -2.2 0.4 7.95139e-16 3.97569e-16 -3.18055e-15 -1.13687e-13 -8.3 1 13.9237 -1.69418 0.042023 -2.27374e-13 -4.65 -1.13687e-13 1.41102 13.7872 9.13623 1.13687e-13 -3.3 2.27374e-13 49.4773 0.0730437 0.0799121 0.5 -2.15 -0.8 7.95139e-16 3.97569e-16 -3.18055e-15 0 -7.75 -0.2 42.3028 -6.77032 0.863404 1.13687e-13 -3.8 0 3.34675 19.6392 12.1563 0 -3.4 -2.27374e-13 47.8841 0.0670011 0.0220472 0.75 -1.75 -1.85 7.95139e-16 3.97569e-16 -3.18055e-15 1.13687e-13 -7.15 -1 53.7048 -14.919 3.31905 5.68434e-14 -3 2.27374e-13 4.38473 14.7347 5.52076 0 -2.35 -1.13687e-13 31.191 0.0273445 0.0371105 8 0 -5.68434e-14 9.68626 -17.9126 -7.15109 0 -45 -1 6.92482 4.80444 0.987819 0 -41 -2 -10.2002 4.6015 -22.6495 0 -7.5 12.5 -2.64766e-07 -4.60975e-07 1.26622e-09 -2.27374e-13 0 4 2.9033 -4.79859 20.0699 -8 0 5.68434e-14 -1.01846 2.44685 4.09987 0 -45 -1 16.8803 -5.78809 -2.6336 -2.27374e-13 -41 -2 -10.2572 2.50827 -20.5052 1.13687e-13 -7.5 12.5 0.00085088 0.403512 -0.119294 0 0 4 2.56269 0.847896 41.8257 
-322.626 91.2856 1098.78 2.993 5.09349 -122.342 0 8 1.13687e-13 10.7292 5.91861 11.3415 0 8 1.7053e-13 2.6891 4.97307 3.63148 -2.27374e-13 8 -5.68434e-14 1.38561 2.46741 1.84091 0 8 -2.84217e-14 1.38646 2.46338 1.83868 0 17 1.42109e-13 -1.1069 5.87747 9.17058 0 10.8 -1.7053e-13 -4.12905 13.3613 21.9833 5 17 1.13687e-13 -6.16574 -2.97774 -0.664651 6.45 -1.13687e-13 -2.84217e-14 -0.737499 -0.703002 -0.425751 6.45 -2.84217e-14 -2.84217e-14 58.2598 -70.0705 32.6434 0 -32.4 -2 -1.7888 -8.38041 7.38958 0 -25.65 2 -9.83715 8.89862 -36.0652 -0.5 -1.5 2.65 34.5983 -42.838 104.658 2.27374e-13 -3.8 3.7 -0.260995 -1.83577 0.018312 -1.13687e-13 -3 2.7 -0.0197931 -0.911674 0.0234128 -1.13687e-13 -1.9 1.6 2.97264e-06 -4.7472e-06 -4.16696e-06 1.13687e-13 -8.3 1.9 -0.0996378 -2.26126 0.00880169 1.13687e-13 -4.5 0 -0.0215101 -0.00381684 -0.119396 0 -3.4 -3.41061e-13 -0.000457102 0.0103328 -0.116933 -0.25 -2.2 0.4 2.97264e-06 -4.7472e-06 -4.16696e-06 0 -8.3 1 -0.100653 -0.959131 0.00504264 -2.27374e-13 -4.65 0 -0.613017 0.0809333 -0.0677049 -1.13687e-13 -3.3 1.13687e-13 -51.7127 -0.0707907 -0.0859032 -0.5 -2.15 -0.8 2.97264e-06 -4.7472e-06 -4.16696e-06 0 -7.75 -0.2 -0.0963905 1.45284 0.0218232 0 -3.8 0 -1.1029 -0.00567004 -0.0130002 -1.13687e-13 -3.4 0 -89.9989 0.0276769 -3.71716 -0.75 -1.75 -1.85 2.97264e-06 -4.7472e-06 -4.16696e-06 0 -7.15 -1 -0.0809062 2.5849 0.029855 0 -3 1.13687e-13 -0.685071 0.0454681 0.00814159 1.13687e-13 -2.35 -1.13687e-13 -0.673579 0.0424958 0.00853147 -5 17 -5.68434e-14 -3.17116 -7.60647 0.567426 -6.45 -1.42109e-13 -1.7053e-13 -1.59008 1.51811 -2.35734 -6.45 0 5.68434e-14 28.6268 -41.5697 44.3217 0 -32.4 -2 28.0526 -62.2396 36.8322 0 -25.65 2 -29.9636 15.7887 53.9748 0.5 -1.5 2.65 97.3068 5.86111 131.165 1.7053e-13 -3.8 3.7 0.116137 2.54633 0.00226801 0 -3 2.7 0.0127737 24.7138 -0.0313945 2.27374e-13 -1.9 1.6 7.95139e-16 -7.95139e-16 6.36111e-15 -1.13687e-13 -8.3 1.9 11.7922 -14.8162 1.38395 1.13687e-13 -4.5 -2.27374e-13 -0.00726733 0.151255 -0.0422022 0 -3.4 -1.13687e-13 -0.000655651 0.146183 0.256492 0.25 -2.2 0.4 7.95139e-16 -7.95139e-16 6.36111e-15 1.13687e-13 -8.3 1 14.1223 -1.67443 0.040604 0 -4.65 -1.13687e-13 1.48057 13.6244 8.77599 1.13687e-13 -3.3 0 47.9931 0.0724104 0.0818105 0.5 -2.15 -0.8 7.95139e-16 -7.95139e-16 6.36111e-15 0 -7.75 -0.2 42.3747 -6.56611 0.78897 0 -3.8 -1.13687e-13 3.4128 19.5274 11.9099 -1.13687e-13 -3.4 0 47.2236 0.0586913 0.0192219 0.75 -1.75 -1.85 7.95139e-16 -7.95139e-16 6.36111e-15 -1.13687e-13 -7.15 -1 54.0229 -14.9018 3.3089 5.68434e-14 -3 1.13687e-13 4.37396 14.5215 5.33372 0 -2.35 1.13687e-13 30.717 0.0245913 0.0332961 8 0 -1.7053e-13 9.70109 -17.902 -7.16385 0 -45 -1 6.92876 4.81747 0.985922 0 -41 -2 -10.2255 4.60792 -22.5723 0 -7.5 12.5 -2.64766e-07 -4.60975e-07 1.26622e-09 0 0 4 2.93615 -4.81786 20.0705 -8 -2.84217e-14 5.68434e-14 -1.02999 2.46128 4.09089 0 -45 -1 16.9043 -5.82216 -2.63162 0 -41 -2 -10.268 2.52434 -20.4253 0 -7.5 12.5 0.00085184 0.403793 -0.119347 0 8.88178e-16 4 2.55924 0.85216 41.8257 
